<svg xmlns="http://www.w3.org/2000/svg" viewBox="0 0 1200 360" role="img" aria-label="Think Tank — blueprint">
  <defs>
    <pattern id="grid" width="24" height="24" patternUnits="userSpaceOnUse">
      <path d="M24 0H0V24" fill="none" stroke="#1f3b66" stroke-width="0.5" opacity="0.35"></path>
    </pattern>
    <pattern id="grid-fine" width="6" height="6" patternUnits="userSpaceOnUse">
      <path d="M6 0H0V6" fill="none" stroke="#1f3b66" stroke-width="0.3" opacity="0.18"></path>
    </pattern>
  </defs>
  <rect width="1200" height="360" fill="#0d1b2a"></rect>
  <rect width="1200" height="360" fill="url(#grid-fine)"></rect>
  <rect width="1200" height="360" fill="url(#grid)"></rect>

  
  <g stroke="#7fb3ff" stroke-width="1.5" fill="none">
    <path d="M24 24 L48 24 M24 24 L24 48"></path>
    <path d="M1176 24 L1152 24 M1176 24 L1176 48"></path>
    <path d="M24 336 L48 336 M24 336 L24 312"></path>
    <path d="M1176 336 L1152 336 M1176 336 L1176 312"></path>
  </g>

  
  <g font-family="ui-monospace, SFMono-Regular, Menlo, monospace" fill="#e8f1ff">
    <text x="60" y="96" font-size="14" letter-spacing="6" opacity="0.7">PROJECT · 001 — LOCAL-FIRST IDEA WORKSPACE</text>
    <text x="60" y="180" font-size="92" font-weight="700" letter-spacing="-2">THINK</text>
    <text x="60" y="270" font-size="92" font-weight="700" letter-spacing="-2" fill="#7fb3ff">TANK</text>
    <text x="60" y="312" font-size="13" letter-spacing="4" opacity="0.6">A REPRESENTATION OF AN EVOLVING IDEA</text>
  </g>

  
  <g transform="translate(740,60)" fill="none" stroke="#7fb3ff" stroke-width="1.5">
    
    <g font-family="ui-monospace, monospace" font-size="11" fill="#e8f1ff">
      <circle cx="180" cy="40" r="8" fill="#0d1b2a"></circle>
      <text x="195" y="44">claims</text>
      <circle cx="60" cy="100" r="8" fill="#0d1b2a"></circle>
      <text x="0" y="92" text-anchor="end">questions</text>
      <circle cx="300" cy="100" r="8" fill="#0d1b2a"></circle>
      <text x="315" y="104">evidence</text>
      <circle cx="120" cy="180" r="8" fill="#0d1b2a"></circle>
      <text x="60" y="200" text-anchor="end">assumptions</text>
      <circle cx="260" cy="180" r="8" fill="#0d1b2a"></circle>
      <text x="275" y="200">decisions</text>
      <circle cx="180" cy="240" r="14" fill="#7fb3ff" stroke="#7fb3ff"></circle>
      <text x="180" y="244" text-anchor="middle" fill="#0d1b2a" font-weight="700">state.json</text>
    </g>
    
    <g opacity="0.7">
      <line x1="180" y1="48" x2="180" y2="226"></line>
      <line x1="68" y1="100" x2="166" y2="232"></line>
      <line x1="292" y1="100" x2="194" y2="232"></line>
      <line x1="120" y1="188" x2="166" y2="232"></line>
      <line x1="260" y1="188" x2="194" y2="232"></line>
      <line x1="180" y1="48" x2="68" y2="100" stroke-dasharray="3 3"></line>
      <line x1="180" y1="48" x2="292" y2="100" stroke-dasharray="3 3"></line>
      <line x1="60" y1="108" x2="120" y2="172"></line>
      <line x1="300" y1="108" x2="260" y2="172"></line>
    </g>
  </g>

  
  <g transform="translate(1010,290)" font-family="ui-monospace, monospace" fill="#7fb3ff" opacity="0.85">
    <rect x="0" y="0" width="146" height="44" fill="none" stroke="#7fb3ff" stroke-width="1"></rect>
    <text x="10" y="18" font-size="10" letter-spacing="2">STATUS</text>
    <text x="10" y="36" font-size="14" font-weight="700">WIP · v0.1</text>
    <line x1="100" y1="6" x2="100" y2="38" stroke="#7fb3ff" opacity="0.5"></line>
    <text x="110" y="18" font-size="10" letter-spacing="2">REV</text>
    <text x="110" y="36" font-size="14" font-weight="700">001</text>
  </g>
</svg>