<svg xmlns="http://www.w3.org/2000/svg" viewBox="0 0 1200 420" role="img" aria-label="Think Tank — editorial">
  <rect width="1200" height="420" fill="#f5f1e8"></rect>
  
  <g fill="#1a1a1a" opacity="0.04">
    <circle cx="120" cy="60" r="0.6"></circle><circle cx="340" cy="22" r="0.5"></circle><circle cx="780" cy="80" r="0.6"></circle>
    <circle cx="980" cy="40" r="0.5"></circle><circle cx="1100" cy="120" r="0.6"></circle><circle cx="200" cy="200" r="0.5"></circle>
    <circle cx="540" cy="260" r="0.6"></circle><circle cx="900" cy="320" r="0.5"></circle><circle cx="80" cy="380" r="0.6"></circle>
    <circle cx="1140" cy="380" r="0.5"></circle><circle cx="640" cy="380" r="0.5"></circle><circle cx="420" cy="120" r="0.6"></circle>
  </g>

  
  <line x1="80" y1="64" x2="1120" y2="64" stroke="#1a1a1a" stroke-width="1"></line>
  <g font-family="Georgia, &#39;Times New Roman&#39;, serif" fill="#1a1a1a">
    <text x="80" y="52" font-size="13" letter-spacing="4">ISSUE Nº 01 — IDEATION, IDEA WORKSPACES, AND THE ARTIFACT THAT SURVIVES</text>
    <text x="1120" y="52" font-size="13" text-anchor="end" letter-spacing="4" font-style="italic">A WORKING DOCUMENT</text>
  </g>

  
  <g font-family="Georgia, &#39;Times New Roman&#39;, serif" fill="#1a1a1a">
    <text x="600" y="220" text-anchor="middle" font-size="148" font-weight="400" font-style="italic" letter-spacing="-3">Think Tank</text>
    <text x="600" y="252" text-anchor="middle" font-size="14" letter-spacing="8">— A LOCAL-FIRST IDEA WORKSPACE —</text>
  </g>

  
  <g transform="translate(600,290)" stroke="#1a1a1a" fill="#1a1a1a">
    <line x1="-160" y1="0" x2="-30" y2="0" stroke-width="0.8"></line>
    <line x1="30" y1="0" x2="160" y2="0" stroke-width="0.8"></line>
    <circle cx="-20" cy="0" r="1.5" stroke="none"></circle>
    <circle cx="0" cy="0" r="2.5" fill="none" stroke-width="0.8"></circle>
    <circle cx="20" cy="0" r="1.5" stroke="none"></circle>
  </g>

  
  <g font-family="Georgia, &#39;Times New Roman&#39;, serif" fill="#1a1a1a">
    <text x="600" y="328" text-anchor="middle" font-size="18" font-style="italic" opacity="0.85">
      “the most valuable thing isn’t a better chat UI —
    </text>
    <text x="600" y="354" text-anchor="middle" font-size="18" font-style="italic" opacity="0.85">
      it’s the artifact that survives the conversation.”
    </text>
  </g>

  
  <line x1="80" y1="388" x2="1120" y2="388" stroke="#1a1a1a" stroke-width="1"></line>
  <g font-family="Georgia, serif" fill="#1a1a1a" font-size="12" letter-spacing="3">
    <text x="80" y="406">PRELIMINARY · WIP</text>
    <text x="600" y="406" text-anchor="middle">✦</text>
    <text x="1120" y="406" text-anchor="end">FILED UNDER: TOOLS / IDEATION</text>
  </g>
</svg>